<svg viewBox="0 0 800 600" xmlns="http://www.w3.org/2000/svg">
  <defs>
    <linearGradient id="frustumGradient" x1="0%" y1="0%" x2="100%" y2="0%">
      <stop offset="0%" style="stop-color:#3498db;stop-opacity:0.3" />
      <stop offset="100%" style="stop-color:#3498db;stop-opacity:0.1" />
    </linearGradient>
    <pattern id="grid" width="20" height="20" patternUnits="userSpaceOnUse">
      <path d="M 20 0 L 0 0 0 20" fill="none" stroke="#e0e0e0" stroke-width="0.5"/>
    </pattern>
  </defs>
  
  <!-- Background -->
  <rect width="800" height="600" fill="#f8f9fa"/>
  
  <!-- Title -->
  <text x="400" y="30" text-anchor="middle" font-family="Arial, sans-serif" font-size="24" font-weight="bold">
    Camera Frustum (Perspective Projection)
  </text>
  
  <!-- Side view of frustum -->
  <g transform="translate(100, 300)">
    <!-- Frustum shape -->
    <path d="M 0,0 L 400,150 L 400,-150 Z" fill="url(#frustumGradient)" stroke="#2980b9" stroke-width="2"/>
    
    <!-- Near plane -->
    <line x1="100" y1="-37.5" x2="100" y2="37.5" stroke="#e74c3c" stroke-width="3"/>
    <text x="100" y="-45" text-anchor="middle" font-family="Arial, sans-serif" font-size="12" fill="#e74c3c">Near</text>
    
    <!-- Far plane -->
    <line x1="400" y1="-150" x2="400" y2="150" stroke="#e74c3c" stroke-width="3"/>
    <text x="400" y="-160" text-anchor="middle" font-family="Arial, sans-serif" font-size="12" fill="#e74c3c">Far</text>
    
    <!-- Camera -->
    <circle cx="0" cy="0" r="8" fill="#333"/>
    <path d="M -15,-15 L 15,-15 L 15,15 L -15,15 Z M -20,-10 L -15,-10 L -15,10 L -20,10 Z" 
          fill="#333" stroke="#333" stroke-width="1"/>
    <text x="0" y="35" text-anchor="middle" font-family="Arial, sans-serif" font-size="14" font-weight="bold">Camera</text>
    
    <!-- FOV angle -->
    <path d="M 50,0 A 50,50 0 0,0 43.3,25" fill="none" stroke="#666" stroke-width="2"/>
    <path d="M 50,0 A 50,50 0 0,1 43.3,-25" fill="none" stroke="#666" stroke-width="2"/>
    <text x="60" y="5" font-family="Arial, sans-serif" font-size="12" fill="#666">FOV</text>
    
    <!-- View direction -->
    <line x1="20" y1="0" x2="80" y2="0" stroke="#333" stroke-width="2" stroke-dasharray="5,5"/>
    <text x="50" y="-10" font-family="Arial, sans-serif" font-size="12" fill="#333">View Direction</text>
  </g>
  
  <!-- Top-down view -->
  <g transform="translate(100, 500)">
    <text x="200" y="-20" text-anchor="middle" font-family="Arial, sans-serif" font-size="16" font-weight="bold">
      Top View - Visible Objects
    </text>
    
    <!-- Frustum outline -->
    <path d="M 0,0 L 150,60 L 150,-60 Z" fill="none" stroke="#2980b9" stroke-width="2" stroke-dasharray="3,3"/>
    
    <!-- Camera -->
    <circle cx="0" cy="0" r="5" fill="#333"/>
    
    <!-- Objects -->
    <!-- Inside frustum (visible) -->
    <circle cx="80" cy="20" r="8" fill="#27ae60" stroke="#229954" stroke-width="2"/>
    <text x="95" y="25" font-family="Arial, sans-serif" font-size="10" fill="#27ae60">Visible</text>
    
    <circle cx="120" cy="-30" r="8" fill="#27ae60" stroke="#229954" stroke-width="2"/>
    
    <circle cx="100" cy="0" r="8" fill="#27ae60" stroke="#229954" stroke-width="2"/>
    
    <!-- Outside frustum (culled) -->
    <circle cx="80" cy="50" r="8" fill="#e74c3c" stroke="#c0392b" stroke-width="2" opacity="0.5"/>
    <text x="95" y="55" font-family="Arial, sans-serif" font-size="10" fill="#e74c3c">Culled</text>
    
    <circle cx="160" cy="0" r="8" fill="#e74c3c" stroke="#c0392b" stroke-width="2" opacity="0.5"/>
    
    <!-- Behind camera -->
    <circle cx="-30" cy="0" r="8" fill="#e74c3c" stroke="#c0392b" stroke-width="2" opacity="0.5"/>
    <text x="-60" y="5" font-family="Arial, sans-serif" font-size="10" fill="#e74c3c">Behind</text>
  </g>
  
  <!-- 3D perspective diagram -->
  <g transform="translate(550, 250)">
    <text x="0" y="-30" text-anchor="middle" font-family="Arial, sans-serif" font-size="16" font-weight="bold">
      3D Frustum Shape
    </text>
    
    <!-- Back face (far plane) -->
    <path d="M -80,-80 L 80,-80 L 80,80 L -80,80 Z" 
          fill="#3498db" fill-opacity="0.1" stroke="#2980b9" stroke-width="2"/>
    
    <!-- Frustum edges -->
    <line x1="-20" y1="-20" x2="-80" y2="-80" stroke="#2980b9" stroke-width="2"/>
    <line x1="20" y1="-20" x2="80" y2="-80" stroke="#2980b9" stroke-width="2"/>
    <line x1="20" y1="20" x2="80" y2="80" stroke="#2980b9" stroke-width="2"/>
    <line x1="-20" y1="20" x2="-80" y2="80" stroke="#2980b9" stroke-width="2"/>
    
    <!-- Front face (near plane) -->
    <path d="M -20,-20 L 20,-20 L 20,20 L -20,20 Z" 
          fill="#3498db" fill-opacity="0.2" stroke="#2980b9" stroke-width="2"/>
    
    <!-- Labels -->
    <text x="0" y="-100" text-anchor="middle" font-family="Arial, sans-serif" font-size="12" fill="#666">
      Far Plane
    </text>
    <text x="0" y="40" text-anchor="middle" font-family="Arial, sans-serif" font-size="12" fill="#666">
      Near Plane
    </text>
    
    <!-- Aspect ratio indicator -->
    <line x1="-80" y1="90" x2="80" y2="90" stroke="#666" stroke-width="1"/>
    <line x1="-80" y1="85" x2="-80" y2="95" stroke="#666" stroke-width="1"/>
    <line x1="80" y1="85" x2="80" y2="95" stroke="#666" stroke-width="1"/>
    <text x="0" y="105" text-anchor="middle" font-family="Arial, sans-serif" font-size="10" fill="#666">
      Aspect Ratio = width/height
    </text>
  </g>
  
  <!-- Parameters -->
  <g transform="translate(550, 450)">
    <rect x="-100" y="-20" width="200" height="100" fill="#ecf0f1" stroke="#bdc3c7" stroke-width="1" rx="5"/>
    <text x="0" y="-5" text-anchor="middle" font-family="Arial, sans-serif" font-size="14" font-weight="bold">
      Frustum Parameters
    </text>
    <text x="-90" y="15" font-family="Arial, sans-serif" font-size="12">• FOV: Field of View angle</text>
    <text x="-90" y="35" font-family="Arial, sans-serif" font-size="12">• Near: Minimum render distance</text>
    <text x="-90" y="55" font-family="Arial, sans-serif" font-size="12">• Far: Maximum render distance</text>
    <text x="-90" y="75" font-family="Arial, sans-serif" font-size="12">• Aspect: width / height ratio</text>
  </g>
</svg>