<svg viewBox="0 0 800 600" xmlns="http://www.w3.org/2000/svg">
  <defs>
    <pattern id="grid" width="20" height="20" patternUnits="userSpaceOnUse">
      <path d="M 20 0 L 0 0 0 20" fill="none" stroke="#e0e0e0" stroke-width="0.5"/>
    </pattern>
    <marker id="arrow" markerWidth="10" markerHeight="10" refX="9" refY="3" orient="auto">
      <path d="M0,0 L0,6 L9,3 z" fill="#333" />
    </marker>
  </defs>
  
  <!-- Background -->
  <rect width="800" height="600" fill="#f8f9fa"/>
  <rect width="800" height="600" fill="url(#grid)" opacity="0.5"/>
  
  <!-- Title -->
  <text x="400" y="30" text-anchor="middle" font-family="Arial, sans-serif" font-size="24" font-weight="bold">
    Collision Detection Methods
  </text>
  
  <!-- AABB vs AABB -->
  <g transform="translate(200, 150)">
    <text x="0" y="-20" text-anchor="middle" font-family="Arial, sans-serif" font-size="16" font-weight="bold">
      AABB vs AABB
    </text>
    
    <!-- Non-colliding -->
    <g transform="translate(-80, 20)">
      <rect x="-30" y="-25" width="60" height="50" fill="#3498db" fill-opacity="0.3" stroke="#2980b9" stroke-width="2"/>
      <text x="0" y="5" text-anchor="middle" font-family="Arial, sans-serif" font-size="10" fill="#2980b9">Box A</text>
      
      <rect x="50" y="-20" width="50" height="40" fill="#e74c3c" fill-opacity="0.3" stroke="#c0392b" stroke-width="2"/>
      <text x="75" y="5" text-anchor="middle" font-family="Arial, sans-serif" font-size="10" fill="#c0392b">Box B</text>
      
      <text x="35" y="45" text-anchor="middle" font-family="Arial, sans-serif" font-size="12" fill="#27ae60">
        No Collision
      </text>
    </g>
    
    <!-- Colliding -->
    <g transform="translate(-80, 100)">
      <rect x="-30" y="-25" width="60" height="50" fill="#3498db" fill-opacity="0.3" stroke="#2980b9" stroke-width="2"/>
      <rect x="10" y="-20" width="50" height="40" fill="#e74c3c" fill-opacity="0.3" stroke="#c0392b" stroke-width="2"/>
      
      <!-- Overlap area -->
      <rect x="10" y="-20" width="20" height="40" fill="#9b59b6" fill-opacity="0.5" stroke="#8e44ad" stroke-width="2" stroke-dasharray="3,3"/>
      
      <text x="15" y="40" text-anchor="middle" font-family="Arial, sans-serif" font-size="12" fill="#e74c3c" font-weight="bold">
        Collision!
      </text>
    </g>
    
    <!-- Algorithm -->
    <rect x="-100" y="160" width="200" height="60" fill="#ecf0f1" stroke="#bdc3c7" stroke-width="1" rx="5"/>
    <text x="0" y="180" text-anchor="middle" font-family="monospace" font-size="10">
      return (a.min.x &lt;= b.max.x &amp;&amp;
    </text>
    <text x="0" y="195" text-anchor="middle" font-family="monospace" font-size="10">
              a.max.x &gt;= b.min.x &amp;&amp;
    </text>
    <text x="0" y="210" text-anchor="middle" font-family="monospace" font-size="10">
              a.min.y &lt;= b.max.y &amp;&amp; ...)
    </text>
  </g>
  
  <!-- Sphere vs Sphere -->
  <g transform="translate(600, 150)">
    <text x="0" y="-20" text-anchor="middle" font-family="Arial, sans-serif" font-size="16" font-weight="bold">
      Sphere vs Sphere
    </text>
    
    <!-- Non-colliding -->
    <g transform="translate(-80, 20)">
      <circle cx="0" cy="0" r="25" fill="#3498db" fill-opacity="0.3" stroke="#2980b9" stroke-width="2"/>
      <text x="0" y="5" text-anchor="middle" font-family="Arial, sans-serif" font-size="10" fill="#2980b9">A</text>
      
      <circle cx="70" cy="0" r="20" fill="#e74c3c" fill-opacity="0.3" stroke="#c0392b" stroke-width="2"/>
      <text x="70" y="5" text-anchor="middle" font-family="Arial, sans-serif" font-size="10" fill="#c0392b">B</text>
      
      <!-- Distance line -->
      <line x1="25" y1="0" x2="50" y2="0" stroke="#666" stroke-width="1" stroke-dasharray="2,2"/>
      <text x="37" y="-10" text-anchor="middle" font-family="Arial, sans-serif" font-size="10" fill="#666">d</text>
      
      <text x="35" y="35" text-anchor="middle" font-family="Arial, sans-serif" font-size="12" fill="#27ae60">
        d &gt; r₁ + r₂
      </text>
    </g>
    
    <!-- Colliding -->
    <g transform="translate(-80, 100)">
      <circle cx="0" cy="0" r="25" fill="#3498db" fill-opacity="0.3" stroke="#2980b9" stroke-width="2"/>
      <circle cx="35" cy="0" r="20" fill="#e74c3c" fill-opacity="0.3" stroke="#c0392b" stroke-width="2"/>
      
      <!-- Overlap indication -->
      <path d="M 20,-15 A 20,20 0 0,1 20,15" fill="#9b59b6" fill-opacity="0.5" stroke="#8e44ad" stroke-width="2"/>
      
      <text x="17" y="40" text-anchor="middle" font-family="Arial, sans-serif" font-size="12" fill="#e74c3c" font-weight="bold">
        d &lt; r₁ + r₂
      </text>
    </g>
    
    <!-- Algorithm -->
    <rect x="-100" y="160" width="200" height="60" fill="#ecf0f1" stroke="#bdc3c7" stroke-width="1" rx="5"/>
    <text x="0" y="180" text-anchor="middle" font-family="monospace" font-size="10">
      dist = distance(a.pos, b.pos)
    </text>
    <text x="0" y="195" text-anchor="middle" font-family="monospace" font-size="10">
      sumRadii = a.radius + b.radius
    </text>
    <text x="0" y="210" text-anchor="middle" font-family="monospace" font-size="10">
      return dist &lt; sumRadii
    </text>
  </g>
  
  <!-- Broad Phase vs Narrow Phase -->
  <g transform="translate(400, 380)">
    <text x="0" y="-20" text-anchor="middle" font-family="Arial, sans-serif" font-size="18" font-weight="bold">
      Two-Phase Collision Detection
    </text>
    
    <!-- Broad Phase -->
    <g transform="translate(-200, 20)">
      <rect x="-80" y="-10" width="160" height="120" fill="#ecf0f1" stroke="#95a5a6" stroke-width="2" rx="5"/>
      <text x="0" y="10" text-anchor="middle" font-family="Arial, sans-serif" font-size="14" font-weight="bold">
        Broad Phase
      </text>
      
      <!-- Grid representation -->
      <g transform="translate(-60, 30)">
        <rect x="0" y="0" width="30" height="30" fill="#3498db" fill-opacity="0.2" stroke="#3498db" stroke-width="1"/>
        <rect x="30" y="0" width="30" height="30" fill="#e74c3c" fill-opacity="0.2" stroke="#e74c3c" stroke-width="1"/>
        <rect x="60" y="0" width="30" height="30" fill="#27ae60" fill-opacity="0.2" stroke="#27ae60" stroke-width="1"/>
        <rect x="90" y="0" width="30" height="30" fill="#f39c12" fill-opacity="0.2" stroke="#f39c12" stroke-width="1"/>
        
        <rect x="0" y="30" width="30" height="30" fill="none" stroke="#666" stroke-width="1"/>
        <rect x="30" y="30" width="30" height="30" fill="#9b59b6" fill-opacity="0.2" stroke="#9b59b6" stroke-width="1"/>
        <rect x="60" y="30" width="30" height="30" fill="#9b59b6" fill-opacity="0.2" stroke="#9b59b6" stroke-width="1"/>
        <rect x="90" y="30" width="30" height="30" fill="none" stroke="#666" stroke-width="1"/>
        
        <!-- Objects in cells -->
        <circle cx="15" cy="15" r="5" fill="#3498db"/>
        <circle cx="45" cy="15" r="5" fill="#e74c3c"/>
        <circle cx="45" cy="45" r="5" fill="#9b59b6"/>
        <circle cx="75" cy="45" r="5" fill="#9b59b6"/>
      </g>
      
      <text x="0" y="100" text-anchor="middle" font-family="Arial, sans-serif" font-size="10" fill="#666">
        Spatial partitioning
      </text>
    </g>
    
    <!-- Arrow -->
    <path d="M -100,60 L -50,60" stroke="#333" stroke-width="3" fill="none" marker-end="url(#arrow)"/>
    <text x="-75" y="55" text-anchor="middle" font-family="Arial, sans-serif" font-size="10" fill="#666">
      Candidates
    </text>
    
    <!-- Narrow Phase -->
    <g transform="translate(100, 20)">
      <rect x="-80" y="-10" width="160" height="120" fill="#ecf0f1" stroke="#95a5a6" stroke-width="2" rx="5"/>
      <text x="0" y="10" text-anchor="middle" font-family="Arial, sans-serif" font-size="14" font-weight="bold">
        Narrow Phase
      </text>
      
      <!-- Precise collision check -->
      <g transform="translate(-30, 40)">
        <circle cx="0" cy="0" r="15" fill="#9b59b6" fill-opacity="0.3" stroke="#8e44ad" stroke-width="2"/>
        <circle cx="25" cy="0" r="15" fill="#9b59b6" fill-opacity="0.3" stroke="#8e44ad" stroke-width="2"/>
        
        <!-- Overlap -->
        <path d="M 10,-13 A 15,15 0 0,1 10,13" fill="#e74c3c" fill-opacity="0.5"/>
        
        <text x="12" y="30" text-anchor="middle" font-family="Arial, sans-serif" font-size="10" fill="#e74c3c">
          Precise test
        </text>
      </g>
      
      <text x="0" y="100" text-anchor="middle" font-family="Arial, sans-serif" font-size="10" fill="#666">
        Exact collision
      </text>
    </g>
  </g>
  
  <!-- Performance note -->
  <g transform="translate(400, 540)">
    <rect x="-300" y="-20" width="600" height="50" fill="#263238" stroke="#37474f" stroke-width="2" rx="5"/>
    <text x="0" y="0" text-anchor="middle" font-family="Arial, sans-serif" font-size="12" fill="white" font-weight="bold">
      Optimization: O(n²) → O(n log n)
    </text>
    <text x="0" y="20" text-anchor="middle" font-family="Arial, sans-serif" font-size="11" fill="#ecf0f1">
      Broad phase eliminates distant pairs, narrow phase checks only nearby objects
    </text>
  </g>
</svg>