<svg viewBox="0 0 800 600" xmlns="http://www.w3.org/2000/svg">
  <defs>
    <pattern id="wireframe" patternUnits="userSpaceOnUse" width="10" height="10">
      <path d="M 10 0 L 0 0 0 10" fill="none" stroke="#00ffff" stroke-width="0.5"/>
    </pattern>
    <filter id="glow">
      <feGaussianBlur stdDeviation="2" result="coloredBlur"/>
      <feMerge>
        <feMergeNode in="coloredBlur"/>
        <feMergeNode in="SourceGraphic"/>
      </feMerge>
    </filter>
    <marker id="arrow" markerWidth="10" markerHeight="10" refX="9" refY="3" orient="auto">
      <path d="M0,0 L0,6 L9,3 z" fill="#666" />
    </marker>
  </defs>
  
  <!-- Background -->
  <rect width="800" height="600" fill="#0a0a0a"/>
  
  <!-- Title -->
  <text x="400" y="30" text-anchor="middle" font-family="Arial, sans-serif" font-size="24" font-weight="bold" fill="white">
    Debug Visualization Modes
  </text>
  
  <!-- Normal View -->
  <g transform="translate(50, 80)">
    <text x="100" y="-10" text-anchor="middle" font-family="Arial, sans-serif" font-size="16" fill="#00ffff" font-weight="bold">
      Normal View
    </text>
    <rect x="0" y="0" width="200" height="150" fill="rgba(0,0,0,0.8)" stroke="#333" stroke-width="1" rx="5"/>
    
    <!-- Objects -->
    <circle cx="50" cy="50" r="15" fill="#3498db" opacity="0.8"/>
    <rect x="80" y="35" width="30" height="30" fill="#e74c3c" opacity="0.8"/>
    <path d="M 130,35 L 160,35 L 145,65 Z" fill="#f39c12" opacity="0.8"/>
    <circle cx="50" cy="100" r="12" fill="#9b59b6" opacity="0.8"/>
    <rect x="80" y="90" width="25" height="25" fill="#27ae60" opacity="0.8"/>
    
    <!-- Grid floor -->
    <g opacity="0.3">
      <line x1="20" y1="130" x2="180" y2="130" stroke="#00ffff" stroke-width="1"/>
      <line x1="20" y1="140" x2="180" y2="140" stroke="#00ffff" stroke-width="0.5"/>
    </g>
  </g>
  
  <!-- AABB Debug View -->
  <g transform="translate(300, 80)">
    <text x="100" y="-10" text-anchor="middle" font-family="Arial, sans-serif" font-size="16" fill="#00ffff" font-weight="bold">
      AABB Debug Mode
    </text>
    <rect x="0" y="0" width="200" height="150" fill="rgba(0,0,0,0.8)" stroke="#333" stroke-width="1" rx="5"/>
    
    <!-- Objects with AABB boxes -->
    <circle cx="50" cy="50" r="15" fill="#3498db" opacity="0.5"/>
    <rect x="35" y="35" width="30" height="30" fill="none" stroke="#00ff00" stroke-width="2" stroke-dasharray="3,3"/>
    <text x="65" y="32" font-family="monospace" font-size="8" fill="#00ff00">AABB</text>
    
    <rect x="80" y="35" width="30" height="30" fill="#e74c3c" opacity="0.5"/>
    <rect x="80" y="35" width="30" height="30" fill="none" stroke="#00ff00" stroke-width="2" stroke-dasharray="3,3"/>
    
    <path d="M 130,35 L 160,35 L 145,65 Z" fill="#f39c12" opacity="0.5"/>
    <rect x="130" y="35" width="30" height="30" fill="none" stroke="#00ff00" stroke-width="2" stroke-dasharray="3,3"/>
    
    <circle cx="50" cy="100" r="12" fill="#9b59b6" opacity="0.5"/>
    <rect x="38" y="88" width="24" height="24" fill="none" stroke="#00ff00" stroke-width="2" stroke-dasharray="3,3"/>
    
    <rect x="80" y="90" width="25" height="25" fill="#27ae60" opacity="0.5"/>
    <rect x="80" y="90" width="25" height="25" fill="none" stroke="#00ff00" stroke-width="2" stroke-dasharray="3,3"/>
    
    <!-- Collision indicator -->
    <circle cx="95" cy="77" r="3" fill="#ff0000" filter="url(#glow)"/>
    <text x="100" y="80" font-family="monospace" font-size="8" fill="#ff0000">COLLISION</text>
  </g>
  
  <!-- Wireframe View -->
  <g transform="translate(550, 80)">
    <text x="100" y="-10" text-anchor="middle" font-family="Arial, sans-serif" font-size="16" fill="#00ffff" font-weight="bold">
      Wireframe Mode
    </text>
    <rect x="0" y="0" width="200" height="150" fill="rgba(0,0,0,0.8)" stroke="#333" stroke-width="1" rx="5"/>
    
    <!-- Wireframe objects -->
    <circle cx="50" cy="50" r="15" fill="none" stroke="#3498db" stroke-width="1"/>
    <g stroke="#3498db" stroke-width="0.5" opacity="0.7">
      <line x1="35" y1="50" x2="65" y2="50"/>
      <line x1="50" y1="35" x2="50" y2="65"/>
      <circle cx="50" cy="50" r="7"/>
    </g>
    
    <rect x="80" y="35" width="30" height="30" fill="none" stroke="#e74c3c" stroke-width="1"/>
    <g stroke="#e74c3c" stroke-width="0.5" opacity="0.7">
      <line x1="80" y1="35" x2="110" y2="65"/>
      <line x1="110" y1="35" x2="80" y2="65"/>
    </g>
    
    <path d="M 130,35 L 160,35 L 145,65 Z" fill="none" stroke="#f39c12" stroke-width="1"/>
    <g stroke="#f39c12" stroke-width="0.5" opacity="0.7">
      <line x1="130" y1="35" x2="145" y2="50"/>
      <line x1="160" y1="35" x2="145" y2="50"/>
      <line x1="145" y1="50" x2="145" y2="65"/>
    </g>
    
    <!-- Grid with pattern -->
    <rect x="0" y="120" width="200" height="30" fill="url(#wireframe)" opacity="0.3"/>
  </g>
  
  <!-- Physics Debug View -->
  <g transform="translate(50, 280)">
    <text x="175" y="-10" text-anchor="middle" font-family="Arial, sans-serif" font-size="16" fill="#00ffff" font-weight="bold">
      Physics Debug Mode
    </text>
    <rect x="0" y="0" width="350" height="200" fill="rgba(0,0,0,0.8)" stroke="#333" stroke-width="1" rx="5"/>
    
    <!-- Objects with velocity vectors -->
    <circle cx="80" cy="80" r="15" fill="#3498db" opacity="0.6"/>
    <path d="M 80,80 L 120,60" stroke="#00ff00" stroke-width="3" marker-end="url(#arrow)"/>
    <text x="125" y="55" font-family="monospace" font-size="8" fill="#00ff00">velocity</text>
    
    <rect x="180" y="65" width="30" height="30" fill="#e74c3c" opacity="0.6"/>
    <path d="M 195,80 L 195,120" stroke="#ff6600" stroke-width="3" marker-end="url(#arrow)"/>
    <text x="200" y="125" font-family="monospace" font-size="8" fill="#ff6600">gravity</text>
    
    <!-- Force indicators -->
    <circle cx="150" cy="120" r="12" fill="#9b59b6" opacity="0.6"/>
    <circle cx="120" cy="140" r="10" fill="#27ae60" opacity="0.6"/>
    
    <!-- Repulsion force -->
    <path d="M 150,120 L 130,110" stroke="#ff0000" stroke-width="2" marker-end="url(#arrow)"/>
    <path d="M 120,140 L 100,150" stroke="#ff0000" stroke-width="2" marker-end="url(#arrow)"/>
    <text x="90" y="165" font-family="monospace" font-size="8" fill="#ff0000">repulsion</text>
    
    <!-- Attraction force -->
    <circle cx="280" cy="100" r="20" fill="#f39c12" opacity="0.3"/>
    <circle cx="250" cy="80" r="8" fill="#e67e22" opacity="0.8"/>
    <path d="M 250,80 L 265,90" stroke="#00aaff" stroke-width="2" marker-end="url(#arrow)"/>
    <text x="230" y="70" font-family="monospace" font-size="8" fill="#00aaff">attraction</text>
    
    <!-- Physics stats -->
    <g transform="translate(10, 160)">
      <text font-family="monospace" font-size="10" fill="#ffffff">
        <tspan x="0" y="0">Bodies: 247 | Collisions: 12 | Forces: Active</tspan>
        <tspan x="0" y="15">Broad Phase: 1.2ms | Narrow Phase: 0.8ms</tspan>
      </text>
    </g>
  </g>
  
  <!-- Performance Overlay -->
  <g transform="translate(450, 280)">
    <text x="150" y="-10" text-anchor="middle" font-family="Arial, sans-serif" font-size="16" fill="#00ffff" font-weight="bold">
      Performance Overlay
    </text>
    <rect x="0" y="0" width="300" height="200" fill="rgba(0,0,0,0.8)" stroke="#333" stroke-width="1" rx="5"/>
    
    <!-- FPS Display -->
    <g transform="translate(20, 20)">
      <rect x="0" y="0" width="80" height="40" fill="rgba(0,255,0,0.2)" stroke="#00ff00" stroke-width="1" rx="3"/>
      <text x="10" y="15" font-family="Arial, sans-serif" font-size="10" fill="#00ff00">FPS</text>
      <text x="40" y="32" text-anchor="middle" font-family="monospace" font-size="18" fill="#00ff00" font-weight="bold">60</text>
    </g>
    
    <!-- Memory Display -->
    <g transform="translate(110, 20)">
      <rect x="0" y="0" width="80" height="40" fill="rgba(255,255,0,0.2)" stroke="#ffff00" stroke-width="1" rx="3"/>
      <text x="10" y="15" font-family="Arial, sans-serif" font-size="10" fill="#ffff00">Memory</text>
      <text x="40" y="32" text-anchor="middle" font-family="monospace" font-size="12" fill="#ffff00">245MB</text>
    </g>
    
    <!-- Draw Calls -->
    <g transform="translate(200, 20)">
      <rect x="0" y="0" width="80" height="40" fill="rgba(255,102,0,0.2)" stroke="#ff6600" stroke-width="1" rx="3"/>
      <text x="10" y="15" font-family="Arial, sans-serif" font-size="10" fill="#ff6600">Draws</text>
      <text x="40" y="32" text-anchor="middle" font-family="monospace" font-size="18" fill="#ff6600" font-weight="bold">5</text>
    </g>
    
    <!-- Mini Performance Graph -->
    <g transform="translate(20, 80)">
      <rect x="0" y="0" width="260" height="60" fill="rgba(0,0,0,0.5)" stroke="#333" stroke-width="1" rx="3"/>
      <text x="5" y="15" font-family="Arial, sans-serif" font-size="10" fill="#00ffff">Performance Graph</text>
      
      <!-- Graph line -->
      <polyline points="10,45 30,40 50,42 70,40 90,41 110,40 130,42 150,41 170,40 190,42 210,41 230,40 250,41"
                fill="none" stroke="#00ff00" stroke-width="2"/>
      
      <!-- Graph labels -->
      <text x="10" y="55" font-family="Arial, sans-serif" font-size="8" fill="#666">0s</text>
      <text x="240" y="55" font-family="Arial, sans-serif" font-size="8" fill="#666">5s</text>
    </g>
    
    <!-- Debug Controls -->
    <g transform="translate(20, 160)">
      <text font-family="monospace" font-size="9" fill="#666">
        <tspan x="0" y="0">Controls: [A]ABB [W]ireframe [P]hysics [F]PS [M]emory</tspan>
      </text>
    </g>
  </g>
  
  <!-- Command Examples -->
  <g transform="translate(50, 520)">
    <text x="0" y="0" font-family="Arial, sans-serif" font-size="14" fill="#00ffff" font-weight="bold">
      Debug Commands:
    </text>
    <text font-family="monospace" font-size="12" fill="#ffffff">
      <tspan x="120" y="0">aabb</tspan>
      <tspan x="200" y="0">physics</tspan>
      <tspan x="280" y="0">fps</tspan>
      <tspan x="340" y="0">visuals</tspan>
      <tspan x="420" y="0">shapes</tspan>
    </text>
    <text x="0" y="20" font-family="Arial, sans-serif" font-size="12" fill="#666">
      Toggle collision boxes, physics debug, FPS counter, visual meshes, and shape statistics
    </text>
  </g>
</svg>