<svg viewBox="0 0 800 600" xmlns="http://www.w3.org/2000/svg">
  <defs>
    <radialGradient id="pointLight" cx="50%" cy="50%" r="50%">
      <stop offset="0%" style="stop-color:#fff59d;stop-opacity:1" />
      <stop offset="50%" style="stop-color:#ffeb3b;stop-opacity:0.5" />
      <stop offset="100%" style="stop-color:#ffeb3b;stop-opacity:0" />
    </radialGradient>
    <linearGradient id="ambientGradient" x1="0%" y1="0%" x2="100%" y2="100%">
      <stop offset="0%" style="stop-color:#e1f5fe;stop-opacity:0.3" />
      <stop offset="100%" style="stop-color:#b3e5fc;stop-opacity:0.3" />
    </linearGradient>
    <marker id="lightArrow" markerWidth="10" markerHeight="10" refX="9" refY="3" orient="auto">
      <path d="M0,0 L0,6 L9,3 z" fill="#ffd54f" />
    </marker>
  </defs>
  
  <!-- Background -->
  <rect width="800" height="600" fill="#1a1a1a"/>
  
  <!-- Title -->
  <text x="400" y="30" text-anchor="middle" font-family="Arial, sans-serif" font-size="24" font-weight="bold" fill="white">
    Three.js Lighting Setup
  </text>
  
  <!-- Scene representation -->
  <g transform="translate(400, 350)">
    <!-- Ground plane -->
    <path d="M -200,0 L -100,100 L 100,100 L 200,0 L 100,-100 L -100,-100 Z" 
          fill="#2c3e50" stroke="#34495e" stroke-width="2"/>
    
    <!-- Grid lines -->
    <g opacity="0.3">
      <line x1="-150" y1="-50" x2="-50" y2="50" stroke="#ecf0f1" stroke-width="1"/>
      <line x1="-100" y1="-100" x2="0" y2="0" stroke="#ecf0f1" stroke-width="1"/>
      <line x1="-50" y1="-50" x2="50" y2="50" stroke="#ecf0f1" stroke-width="1"/>
      <line x1="0" y1="-100" x2="100" y2="0" stroke="#ecf0f1" stroke-width="1"/>
      <line x1="50" y1="-50" x2="150" y2="50" stroke="#ecf0f1" stroke-width="1"/>
      
      <line x1="-150" y1="50" x2="50" y2="50" stroke="#ecf0f1" stroke-width="1"/>
      <line x1="-100" y1="0" x2="100" y2="0" stroke="#ecf0f1" stroke-width="1"/>
      <line x1="-50" y1="-50" x2="150" y2="-50" stroke="#ecf0f1" stroke-width="1"/>
    </g>
  </g>
  
  <!-- Ambient Light -->
  <g transform="translate(150, 150)">
    <rect x="-100" y="-100" width="200" height="200" fill="url(#ambientGradient)" rx="100"/>
    <text x="0" y="-120" text-anchor="middle" font-family="Arial, sans-serif" font-size="16" font-weight="bold" fill="#81c784">
      Ambient Light
    </text>
    <text x="0" y="0" text-anchor="middle" font-family="Arial, sans-serif" font-size="12" fill="#b3e5fc">
      Uniform illumination
    </text>
    <text x="0" y="20" text-anchor="middle" font-family="Arial, sans-serif" font-size="12" fill="#b3e5fc">
      No shadows
    </text>
    <text x="0" y="40" text-anchor="middle" font-family="Arial, sans-serif" font-size="12" fill="#b3e5fc">
      Base lighting
    </text>
    
    <!-- Code snippet -->
    <rect x="-90" y="60" width="180" height="30" fill="#263238" stroke="#37474f" stroke-width="1" rx="3"/>
    <text x="0" y="80" text-anchor="middle" font-family="monospace" font-size="10" fill="#81c784">
      new THREE.AmbientLight(0x404040)
    </text>
  </g>
  
  <!-- Directional Light -->
  <g transform="translate(650, 150)">
    <text x="0" y="-80" text-anchor="middle" font-family="Arial, sans-serif" font-size="16" font-weight="bold" fill="#fff59d">
      Directional Light
    </text>
    
    <!-- Sun representation -->
    <circle cx="0" cy="-40" r="20" fill="#ffeb3b" stroke="#ffd54f" stroke-width="3"/>
    
    <!-- Light rays -->
    <line x1="-40" y1="-20" x2="-80" y2="40" stroke="#ffd54f" stroke-width="3" marker-end="url(#lightArrow)"/>
    <line x1="-20" y1="-20" x2="-40" y2="40" stroke="#ffd54f" stroke-width="3" marker-end="url(#lightArrow)"/>
    <line x1="0" y1="-20" x2="0" y2="40" stroke="#ffd54f" stroke-width="3" marker-end="url(#lightArrow)"/>
    <line x1="20" y1="-20" x2="40" y2="40" stroke="#ffd54f" stroke-width="3" marker-end="url(#lightArrow)"/>
    <line x1="40" y1="-20" x2="80" y2="40" stroke="#ffd54f" stroke-width="3" marker-end="url(#lightArrow)"/>
    
    <text x="0" y="70" text-anchor="middle" font-family="Arial, sans-serif" font-size="12" fill="#fff59d">
      Parallel rays
    </text>
    <text x="0" y="90" text-anchor="middle" font-family="Arial, sans-serif" font-size="12" fill="#fff59d">
      Casts shadows
    </text>
    <text x="0" y="110" text-anchor="middle" font-family="Arial, sans-serif" font-size="12" fill="#fff59d">
      Sun-like
    </text>
    
    <!-- Code snippet -->
    <rect x="-90" y="125" width="180" height="45" fill="#263238" stroke="#37474f" stroke-width="1" rx="3"/>
    <text x="0" y="140" text-anchor="middle" font-family="monospace" font-size="9" fill="#fff59d">
      const dirLight = new THREE.DirectionalLight(0xffffff, 1)
    </text>
    <text x="0" y="155" text-anchor="middle" font-family="monospace" font-size="9" fill="#fff59d">
      dirLight.position.set(1, 1, 0.5)
    </text>
  </g>
  
  <!-- Point Lights -->
  <g transform="translate(400, 350)">
    <!-- Point light 1 -->
    <g transform="translate(-100, -50)">
      <circle cx="0" cy="0" r="60" fill="url(#pointLight)"/>
      <circle cx="0" cy="0" r="8" fill="#ffeb3b" stroke="#ffd54f" stroke-width="2"/>
      <text x="0" y="-70" text-anchor="middle" font-family="Arial, sans-serif" font-size="12" fill="#ffeb3b">
        Point Light
      </text>
    </g>
    
    <!-- Point light 2 -->
    <g transform="translate(100, -30)">
      <circle cx="0" cy="0" r="50" fill="url(#pointLight)" opacity="0.7"/>
      <circle cx="0" cy="0" r="6" fill="#ff6b6b" stroke="#ff5252" stroke-width="2"/>
    </g>
    
    <!-- Objects casting shadows -->
    <g transform="translate(0, -20)">
      <!-- Cube -->
      <path d="M -20,-20 L 20,-20 L 30,-10 L 30,30 L -10,30 L -20,-10 Z" 
            fill="#546e7a" stroke="#455a64" stroke-width="2"/>
      <!-- Shadow -->
      <ellipse cx="10" cy="35" rx="25" ry="8" fill="#000" opacity="0.3"/>
      
      <!-- Sphere -->
      <circle cx="60" cy="0" r="20" fill="#7986cb" stroke="#5c6bc0" stroke-width="2"/>
      <!-- Shadow -->
      <ellipse cx="60" cy="25" rx="20" ry="6" fill="#000" opacity="0.3"/>
    </g>
  </g>
  
  <!-- Light types comparison -->
  <g transform="translate(400, 520)">
    <rect x="-350" y="-20" width="700" height="80" fill="#263238" stroke="#37474f" stroke-width="2" rx="5"/>
    
    <!-- Ambient -->
    <g transform="translate(-250, 0)">
      <circle cx="0" cy="0" r="15" fill="#81c784" opacity="0.5"/>
      <text x="0" y="5" text-anchor="middle" font-family="Arial, sans-serif" font-size="10" fill="white">Ambient</text>
      <text x="0" y="25" text-anchor="middle" font-family="Arial, sans-serif" font-size="8" fill="#81c784">Global</text>
    </g>
    
    <!-- Directional -->
    <g transform="translate(-100, 0)">
      <rect x="-15" y="-15" width="30" height="30" fill="#fff59d" opacity="0.5"/>
      <text x="0" y="5" text-anchor="middle" font-family="Arial, sans-serif" font-size="10" fill="white">Directional</text>
      <text x="0" y="25" text-anchor="middle" font-family="Arial, sans-serif" font-size="8" fill="#fff59d">Infinite</text>
    </g>
    
    <!-- Point -->
    <g transform="translate(50, 0)">
      <circle cx="0" cy="0" r="15" fill="#ffeb3b"/>
      <text x="0" y="5" text-anchor="middle" font-family="Arial, sans-serif" font-size="10" fill="#333">Point</text>
      <text x="0" y="25" text-anchor="middle" font-family="Arial, sans-serif" font-size="8" fill="#ffeb3b">Omnidirectional</text>
    </g>
    
    <!-- Spot -->
    <g transform="translate(200, 0)">
      <path d="M 0,-15 L 15,15 L -15,15 Z" fill="#ff6b6b" opacity="0.8"/>
      <text x="0" y="5" text-anchor="middle" font-family="Arial, sans-serif" font-size="10" fill="white">Spot</text>
      <text x="0" y="25" text-anchor="middle" font-family="Arial, sans-serif" font-size="8" fill="#ff6b6b">Cone</text>
    </g>
  </g>
  
  <!-- Performance note -->
  <text x="400" y="580" text-anchor="middle" font-family="Arial, sans-serif" font-size="12" fill="#ecf0f1">
    Note: Shadow-casting lights impact performance. Use sparingly for best results.
  </text>
</svg>