<svg viewBox="0 0 800 600" xmlns="http://www.w3.org/2000/svg">
  <defs>
    <linearGradient id="performanceGradient" x1="0%" y1="0%" x2="100%" y2="0%">
      <stop offset="0%" style="stop-color:#00ff00;stop-opacity:1" />
      <stop offset="50%" style="stop-color:#ffff00;stop-opacity:1" />
      <stop offset="100%" style="stop-color:#ff0000;stop-opacity:1" />
    </linearGradient>
    <filter id="glow">
      <feGaussianBlur stdDeviation="2" result="coloredBlur"/>
      <feMerge>
        <feMergeNode in="coloredBlur"/>
        <feMergeNode in="SourceGraphic"/>
      </feMerge>
    </filter>
    <pattern id="grid" width="20" height="20" patternUnits="userSpaceOnUse">
      <path d="M 20 0 L 0 0 0 20" fill="none" stroke="#333" stroke-width="0.5"/>
    </pattern>
  </defs>
  
  <!-- Background -->
  <rect width="800" height="600" fill="#0a0a0a"/>
  <rect width="800" height="600" fill="url(#grid)" opacity="0.3"/>
  
  <!-- Title -->
  <text x="400" y="30" text-anchor="middle" font-family="Arial, sans-serif" font-size="24" font-weight="bold" fill="white">
    Performance Monitoring Dashboard
  </text>
  
  <!-- Main Dashboard Container -->
  <g transform="translate(50, 60)">
    <!-- Dashboard Background -->
    <rect x="0" y="0" width="700" height="520" fill="rgba(0,0,0,0.8)" stroke="#00ffff" stroke-width="2" rx="10"/>
    
    <!-- FPS Counter -->
    <g transform="translate(20, 20)">
      <rect x="0" y="0" width="120" height="80" fill="rgba(0,255,0,0.1)" stroke="#00ff00" stroke-width="2" rx="5"/>
      <text x="10" y="20" font-family="Arial, sans-serif" font-size="12" fill="#00ff00" font-weight="bold">
        FPS
      </text>
      <text x="60" y="50" text-anchor="middle" font-family="monospace" font-size="28" fill="#00ff00" font-weight="bold" filter="url(#glow)">
        60
      </text>
      <text x="60" y="70" text-anchor="middle" font-family="Arial, sans-serif" font-size="10" fill="#ccffcc">
        Avg: 59.2 | Min: 45
      </text>
    </g>
    
    <!-- Frame Time -->
    <g transform="translate(160, 20)">
      <rect x="0" y="0" width="120" height="80" fill="rgba(255,255,0,0.1)" stroke="#ffff00" stroke-width="2" rx="5"/>
      <text x="10" y="20" font-family="Arial, sans-serif" font-size="12" fill="#ffff00" font-weight="bold">
        Frame Time
      </text>
      <text x="60" y="50" text-anchor="middle" font-family="monospace" font-size="24" fill="#ffff00" font-weight="bold">
        16.7ms
      </text>
      <text x="60" y="70" text-anchor="middle" font-family="Arial, sans-serif" font-size="10" fill="#ffffcc">
        Target: &lt;16.67ms
      </text>
    </g>
    
    <!-- Memory Usage -->
    <g transform="translate(300, 20)">
      <rect x="0" y="0" width="120" height="80" fill="rgba(255,102,0,0.1)" stroke="#ff6600" stroke-width="2" rx="5"/>
      <text x="10" y="20" font-family="Arial, sans-serif" font-size="12" fill="#ff6600" font-weight="bold">
        Memory
      </text>
      <text x="60" y="50" text-anchor="middle" font-family="monospace" font-size="20" fill="#ff6600" font-weight="bold">
        245MB
      </text>
      <text x="60" y="70" text-anchor="middle" font-family="Arial, sans-serif" font-size="10" fill="#ffccaa">
        Heap: 180MB
      </text>
    </g>
    
    <!-- GPU Stats -->
    <g transform="translate(440, 20)">
      <rect x="0" y="0" width="120" height="80" fill="rgba(153,69,255,0.1)" stroke="#9945ff" stroke-width="2" rx="5"/>
      <text x="10" y="20" font-family="Arial, sans-serif" font-size="12" fill="#9945ff" font-weight="bold">
        GPU
      </text>
      <text x="60" y="45" text-anchor="middle" font-family="monospace" font-size="14" fill="#9945ff" font-weight="bold">
        5 calls
      </text>
      <text x="60" y="65" text-anchor="middle" font-family="Arial, sans-serif" font-size="10" fill="#ccaaff">
        47K triangles
      </text>
    </g>
    
    <!-- Physics Stats -->
    <g transform="translate(580, 20)">
      <rect x="0" y="0" width="100" height="80" fill="rgba(255,0,255,0.1)" stroke="#ff00ff" stroke-width="2" rx="5"/>
      <text x="10" y="20" font-family="Arial, sans-serif" font-size="12" fill="#ff00ff" font-weight="bold">
        Physics
      </text>
      <text x="50" y="45" text-anchor="middle" font-family="monospace" font-size="14" fill="#ff00ff" font-weight="bold">
        3.2ms
      </text>
      <text x="50" y="65" text-anchor="middle" font-family="Arial, sans-serif" font-size="10" fill="#ffccff">
        247 bodies
      </text>
    </g>
    
    <!-- Performance Graph -->
    <g transform="translate(20, 120)">
      <rect x="0" y="0" width="660" height="200" fill="rgba(0,0,0,0.5)" stroke="#333" stroke-width="1" rx="3"/>
      <text x="10" y="20" font-family="Arial, sans-serif" font-size="14" fill="#00ffff" font-weight="bold">
        Performance Graph (Last 5 seconds)
      </text>
      
      <!-- Graph Grid -->
      <g opacity="0.3">
        <line x1="50" y1="40" x2="50" y2="180" stroke="#666" stroke-width="1"/>
        <line x1="50" y1="180" x2="640" y2="180" stroke="#666" stroke-width="1"/>
        
        <!-- Horizontal grid lines -->
        <line x1="50" y1="60" x2="640" y2="60" stroke="#333" stroke-width="0.5"/>
        <line x1="50" y1="100" x2="640" y2="100" stroke="#333" stroke-width="0.5"/>
        <line x1="50" y1="140" x2="640" y2="140" stroke="#333" stroke-width="0.5"/>
        
        <!-- Vertical grid lines -->
        <line x1="150" y1="40" x2="150" y2="180" stroke="#333" stroke-width="0.5"/>
        <line x1="250" y1="40" x2="250" y2="180" stroke="#333" stroke-width="0.5"/>
        <line x1="350" y1="40" x2="350" y2="180" stroke="#333" stroke-width="0.5"/>
        <line x1="450" y1="40" x2="450" y2="180" stroke="#333" stroke-width="0.5"/>
        <line x1="550" y1="40" x2="550" y2="180" stroke="#333" stroke-width="0.5"/>
      </g>
      
      <!-- Y-axis labels -->
      <text x="45" y="45" text-anchor="end" font-family="Arial, sans-serif" font-size="10" fill="#ccc">60</text>
      <text x="45" y="85" text-anchor="end" font-family="Arial, sans-serif" font-size="10" fill="#ccc">45</text>
      <text x="45" y="125" text-anchor="end" font-family="Arial, sans-serif" font-size="10" fill="#ccc">30</text>
      <text x="45" y="165" text-anchor="end" font-family="Arial, sans-serif" font-size="10" fill="#ccc">15</text>
      <text x="45" y="185" text-anchor="end" font-family="Arial, sans-serif" font-size="10" fill="#ccc">0</text>
      
      <!-- FPS Line Graph -->
      <polyline points="50,60 70,55 90,65 110,58 130,60 150,62 170,59 190,61 210,63 230,60 250,58 270,62 290,65 310,61 330,59 350,60 370,58 390,62 410,60 430,59 450,61 470,63 490,60 510,58 530,62 550,64 570,61 590,59 610,60 630,58"
            fill="none" stroke="#00ff00" stroke-width="2"/>
      
      <!-- Frame Time Line Graph -->
      <polyline points="50,120 70,125 90,115 110,122 130,120 150,118 170,121 190,119 210,117 230,120 250,122 270,118 290,115 310,119 330,121 350,120 370,122 390,118 410,120 430,121 450,119 470,117 490,120 510,122 530,118 550,116 570,119 590,121 610,120 630,122"
            fill="none" stroke="#ffff00" stroke-width="2"/>
    </g>
    
    <!-- Detailed Stats Panel -->
    <g transform="translate(20, 340)">
      <rect x="0" y="0" width="320" height="160" fill="rgba(0,0,0,0.3)" stroke="#333" stroke-width="1" rx="3"/>
      <text x="10" y="20" font-family="Arial, sans-serif" font-size="14" fill="#00ffff" font-weight="bold">
        Detailed Statistics
      </text>
      
      <!-- Stats Table -->
      <g transform="translate(10, 30)">
        <text font-family="monospace" font-size="10" fill="#ffffff">
          <tspan x="0" y="15">Metric          Current    Average    Min/Max</tspan>
          <tspan x="0" y="30">────────────────────────────────────────────</tspan>
          <tspan x="0" y="45">FPS             60.0       59.2       45/60</tspan>
          <tspan x="0" y="60">Frame Time      16.7ms     16.9ms     16.7/22.2ms</tspan>
          <tspan x="0" y="75">Memory (JS)     180MB      175MB      150/200MB</tspan>
          <tspan x="0" y="90">Draw Calls      5          5.2        5/8</tspan>
          <tspan x="0" y="105">Triangles       47,342     46,890     40K/52K</tspan>
          <tspan x="0" y="120">Physics Time    3.2ms      3.4ms      2.1/5.8ms</tspan>
        </text>
      </g>
    </g>
    
    <!-- Alert Status -->
    <g transform="translate(360, 340)">
      <rect x="0" y="0" width="320" height="160" fill="rgba(0,0,0,0.3)" stroke="#333" stroke-width="1" rx="3"/>
      <text x="10" y="20" font-family="Arial, sans-serif" font-size="14" fill="#00ffff" font-weight="bold">
        Performance Alerts
      </text>
      
      <!-- Alert List -->
      <g transform="translate(15, 35)">
        <!-- Good Performance -->
        <circle cx="5" cy="10" r="3" fill="#00ff00"/>
        <text x="15" y="15" font-family="Arial, sans-serif" font-size="12" fill="#00ff00">
          FPS: Excellent (60 FPS target met)
        </text>
        
        <!-- Warning -->
        <circle cx="5" cy="30" r="3" fill="#ffff00"/>
        <text x="15" y="35" font-family="Arial, sans-serif" font-size="12" fill="#ffff00">
          Memory: Approaching limit (245/300MB)
        </text>
        
        <!-- Info -->
        <circle cx="5" cy="50" r="3" fill="#00aaff"/>
        <text x="15" y="55" font-family="Arial, sans-serif" font-size="12" fill="#00aaff">
          Physics: Normal load (247 bodies)
        </text>
        
        <!-- Threshold Bars -->
        <g transform="translate(0, 75)">
          <text x="0" y="0" font-family="Arial, sans-serif" font-size="12" fill="#ccc">
            Performance Zones:
          </text>
          
          <!-- Good Zone -->
          <rect x="0" y="10" width="80" height="15" fill="#00ff00" opacity="0.3"/>
          <text x="5" y="22" font-family="Arial, sans-serif" font-size="10" fill="#00ff00">
            Excellent
          </text>
          
          <!-- Warning Zone -->
          <rect x="80" y="10" width="60" height="15" fill="#ffff00" opacity="0.3"/>
          <text x="85" y="22" font-family="Arial, sans-serif" font-size="10" fill="#ffff00">
            Warning
          </text>
          
          <!-- Critical Zone -->
          <rect x="140" y="10" width="40" height="15" fill="#ff0000" opacity="0.3"/>
          <text x="145" y="22" font-family="Arial, sans-serif" font-size="10" fill="#ff0000">
            Critical
          </text>
        </g>
      </g>
    </g>
  </g>
  
  <!-- Control Panel -->
  <g transform="translate(50, 550)">
    <text x="0" y="0" font-family="Arial, sans-serif" font-size="12" fill="#666">
      Controls: [F] Toggle FPS | [M] Memory Details | [G] GPU Info | [P] Physics Debug | [E] Export Data
    </text>
  </g>
</svg>