<svg viewBox="0 0 800 600" xmlns="http://www.w3.org/2000/svg">
  <defs>
    <marker id="arrow" markerWidth="10" markerHeight="10" refX="9" refY="3" orient="auto">
      <path d="M0,0 L0,6 L9,3 z" fill="#333" />
    </marker>
  </defs>
  
  <!-- Background -->
  <rect width="800" height="600" fill="#f8f9fa"/>
  
  <!-- Title -->
  <text x="400" y="30" text-anchor="middle" font-family="Arial, sans-serif" font-size="24" font-weight="bold">
    Spring-Based Camera System
  </text>
  
  <!-- Spring visualization -->
  <g transform="translate(200, 200)">
    <text x="0" y="-30" text-anchor="middle" font-family="Arial, sans-serif" font-size="18" font-weight="bold">
      Spring Damping Model
    </text>
    
    <!-- Target position -->
    <circle cx="150" cy="0" r="8" fill="#e74c3c"/>
    <text x="150" y="-15" text-anchor="middle" font-family="Arial, sans-serif" font-size="12" fill="#e74c3c">Target</text>
    
    <!-- Current position -->
    <circle cx="50" cy="0" r="10" fill="#3498db" stroke="#2980b9" stroke-width="2"/>
    <text x="50" y="-20" text-anchor="middle" font-family="Arial, sans-serif" font-size="12" fill="#3498db">Camera</text>
    
    <!-- Spring -->
    <path d="M 60,0 Q 70,-10 80,0 T 100,0 T 120,0 T 140,0" 
          fill="none" stroke="#666" stroke-width="3"/>
    
    <!-- Force vector -->
    <line x1="60" y1="0" x2="100" y2="0" stroke="#27ae60" stroke-width="3" marker-end="url(#arrow)"/>
    <text x="80" y="15" text-anchor="middle" font-family="Arial, sans-serif" font-size="10" fill="#27ae60">F = -kx - cv</text>
    
    <!-- Wall (fixed point) -->
    <line x1="-10" y1="-20" x2="-10" y2="20" stroke="#333" stroke-width="4"/>
    <pattern id="hatch" patternUnits="userSpaceOnUse" width="4" height="4">
      <path d="M 0,4 l 4,-4 M -1,1 l 2,-2 M 3,5 l 2,-2" stroke="#333" stroke-width="0.5"/>
    </pattern>
    <rect x="-20" y="-20" width="10" height="40" fill="url(#hatch)"/>
    
    <!-- Parameters -->
    <g transform="translate(0, 60)">
      <text x="0" y="0" font-family="Arial, sans-serif" font-size="12" fill="#666">k = spring constant (stiffness)</text>
      <text x="0" y="20" font-family="Arial, sans-serif" font-size="12" fill="#666">c = damping coefficient</text>
      <text x="0" y="40" font-family="Arial, sans-serif" font-size="12" fill="#666">x = displacement</text>
      <text x="0" y="60" font-family="Arial, sans-serif" font-size="12" fill="#666">v = velocity</text>
    </g>
  </g>
  
  <!-- Damping comparison -->
  <g transform="translate(550, 150)">
    <text x="0" y="0" text-anchor="middle" font-family="Arial, sans-serif" font-size="18" font-weight="bold">
      Damping Response Types
    </text>
    
    <!-- Graph axes -->
    <line x1="-100" y1="100" x2="100" y2="100" stroke="#333" stroke-width="2"/>
    <line x1="-100" y1="20" x2="-100" y2="100" stroke="#333" stroke-width="2"/>
    
    <!-- Time label -->
    <text x="0" y="120" text-anchor="middle" font-family="Arial, sans-serif" font-size="12" fill="#666">Time</text>
    
    <!-- Target line -->
    <line x1="-100" y1="40" x2="100" y2="40" stroke="#666" stroke-width="1" stroke-dasharray="3,3"/>
    <text x="110" y="44" font-family="Arial, sans-serif" font-size="10" fill="#666">Target</text>
    
    <!-- Underdamped (oscillating) -->
    <path d="M -100,100 Q -80,30 -60,45 Q -40,60 -20,38 Q 0,42 20,40 Q 40,40 60,40 Q 80,40 100,40" 
          fill="none" stroke="#e74c3c" stroke-width="2"/>
    <text x="-50" y="25" font-family="Arial, sans-serif" font-size="10" fill="#e74c3c">Underdamped</text>
    
    <!-- Critically damped (optimal) -->
    <path d="M -100,100 Q -60,50 -20,42 Q 20,40 60,40 Q 80,40 100,40" 
          fill="none" stroke="#27ae60" stroke-width="3"/>
    <text x="-50" y="60" font-family="Arial, sans-serif" font-size="10" fill="#27ae60" font-weight="bold">Critical (Optimal)</text>
    
    <!-- Overdamped (slow) -->
    <path d="M -100,100 Q -80,85 -60,70 Q -40,58 -20,50 Q 0,46 20,43 Q 40,41 60,40.5 Q 80,40.2 100,40" 
          fill="none" stroke="#3498db" stroke-width="2"/>
    <text x="-50" y="90" font-family="Arial, sans-serif" font-size="10" fill="#3498db">Overdamped</text>
  </g>
  
  <!-- Camera movement example -->
  <g transform="translate(400, 420)">
    <text x="0" y="-20" text-anchor="middle" font-family="Arial, sans-serif" font-size="18" font-weight="bold">
      Camera Following Target
    </text>
    
    <!-- Scene view -->
    <rect x="-150" y="0" width="300" height="150" fill="none" stroke="#666" stroke-width="2" rx="5"/>
    
    <!-- Grid -->
    <g opacity="0.3">
      <line x1="-150" y1="30" x2="150" y2="30" stroke="#ddd" stroke-width="1"/>
      <line x1="-150" y1="60" x2="150" y2="60" stroke="#ddd" stroke-width="1"/>
      <line x1="-150" y1="90" x2="150" y2="90" stroke="#ddd" stroke-width="1"/>
      <line x1="-150" y1="120" x2="150" y2="120" stroke="#ddd" stroke-width="1"/>
      
      <line x1="-120" y1="0" x2="-120" y2="150" stroke="#ddd" stroke-width="1"/>
      <line x1="-90" y1="0" x2="-90" y2="150" stroke="#ddd" stroke-width="1"/>
      <line x1="-60" y1="0" x2="-60" y2="150" stroke="#ddd" stroke-width="1"/>
      <line x1="-30" y1="0" x2="-30" y2="150" stroke="#ddd" stroke-width="1"/>
      <line x1="0" y1="0" x2="0" y2="150" stroke="#ddd" stroke-width="1"/>
      <line x1="30" y1="0" x2="30" y2="150" stroke="#ddd" stroke-width="1"/>
      <line x1="60" y1="0" x2="60" y2="150" stroke="#ddd" stroke-width="1"/>
      <line x1="90" y1="0" x2="90" y2="150" stroke="#ddd" stroke-width="1"/>
      <line x1="120" y1="0" x2="120" y2="150" stroke="#ddd" stroke-width="1"/>
    </g>
    
    <!-- Target path -->
    <path d="M -120,75 Q -60,40 0,60 Q 60,80 120,75" 
          fill="none" stroke="#e74c3c" stroke-width="2" stroke-dasharray="5,5"/>
    
    <!-- Target positions -->
    <g opacity="0.4">
      <circle cx="-120" cy="75" r="4" fill="#e74c3c"/>
      <circle cx="-90" cy="60" r="4" fill="#e74c3c"/>
      <circle cx="-60" cy="50" r="4" fill="#e74c3c"/>
      <circle cx="-30" cy="48" r="4" fill="#e74c3c"/>
      <circle cx="0" cy="60" r="4" fill="#e74c3c"/>
      <circle cx="30" cy="70" r="4" fill="#e74c3c"/>
      <circle cx="60" cy="78" r="4" fill="#e74c3c"/>
      <circle cx="90" cy="77" r="4" fill="#e74c3c"/>
    </g>
    
    <!-- Current target -->
    <circle cx="120" cy="75" r="6" fill="#e74c3c"/>
    <text x="120" y="65" text-anchor="middle" font-family="Arial, sans-serif" font-size="10" fill="#e74c3c">Target</text>
    
    <!-- Camera path (smooth) -->
    <path d="M -120,75 Q -80,68 -40,55 Q 0,52 40,65 Q 80,72 100,74" 
          fill="none" stroke="#3498db" stroke-width="3"/>
    
    <!-- Camera position -->
    <rect x="90" y="69" width="20" height="12" fill="#3498db" stroke="#2980b9" stroke-width="2" rx="2"/>
    <circle cx="95" cy="75" r="2" fill="#fff"/>
    <circle cx="105" cy="75" r="2" fill="#fff"/>
    <text x="100" y="95" text-anchor="middle" font-family="Arial, sans-serif" font-size="10" fill="#3498db">Camera</text>
    
    <text x="0" y="180" text-anchor="middle" font-family="Arial, sans-serif" font-size="12" fill="#666">
      Spring physics creates smooth, natural camera movement
    </text>
  </g>
</svg>